<svg width="1112" height="1141" viewBox="0 0 1112 1141" fill="none" xmlns="http://www.w3.org/2000/svg">
<path opacity="0.35" d="M1110.23 646.379L1076.12 334.898M1076.12 334.898L959.458 418.81M1076.12 334.898L954.513 170.05L642.451 1.36712M1076.12 334.898L856.803 124.05M984.02 933.019L1110.57 646.251M984.02 933.019L713.855 1042.76M984.02 933.019L798.203 1093.37M984.02 933.019L904.45 768.477M1110.57 646.251L959.458 418.81M1110.57 646.251L904.45 768.477M713.855 1042.76L575.52 819.082M713.855 1042.76L904.45 768.477M713.855 1042.76L406.012 1013.24M713.855 1042.76L798.203 1093.37M713.855 1042.76L465.056 1139.75M798.203 1093.37L465.056 1139.75M904.45 768.477L959.458 418.81M904.45 768.477L727.512 549.541M904.45 768.477L575.52 819.082M959.458 418.81L727.512 549.541M959.458 418.81L820.546 338.167L668.863 253.957M959.458 418.81L856.803 124.05M727.512 549.541L421.521 501.299M727.512 549.541L575.52 819.082M727.512 549.541L668.863 253.957M668.863 253.957L421.521 501.299M668.863 253.957L856.803 124.05M668.863 253.957L666.592 253.631M856.803 124.05L565.825 52.3601M144.119 474.067L421.521 501.299M144.119 474.067L9.17313 651.183M144.119 474.067L228.46 777.696M144.119 474.067L321.236 204.175M144.119 474.067L60.9563 304.518M421.521 501.299L321.236 204.175M421.521 501.299L228.46 777.696M421.521 501.299L575.52 819.082M9.17313 651.183L228.46 777.696M9.17313 651.183L60.9563 304.518M9.17313 651.183L160.985 971.682M9.17313 651.183L0.738788 499.37L60.9563 304.518M9.17313 651.183L38.6913 807.216L160.985 971.682M228.46 777.696L575.52 819.082M228.46 777.696L160.985 971.682M228.46 777.696L406.012 1013.24M321.236 204.175L317.019 124.05L313.516 51.9582M321.236 204.175L642.451 1.36712M321.236 204.175L60.9563 304.518M321.236 204.175L666.592 253.631M60.9563 304.518L123.033 216.826L313.516 51.9582M60.9563 304.518L313.516 51.9582M575.52 819.082L406.012 1013.24M666.592 253.631L565.825 52.3601M160.985 971.682L406.012 1013.24M160.985 971.682L465.056 1139.75M406.012 1013.24L465.056 1139.75M313.516 51.9582L642.451 1.36712M313.516 51.9582L565.825 52.3601" stroke="#BBBBBB"/>
</svg>
